<svg viewBox="0 0 54 54" xmlns="http://www.w3.org/2000/svg">
  <path d="M27 54.06C33.48 54.06 39.48 51.78 44.16 47.94C43.32 46.68 42.36 45.78 41.34 44.94C38.22 42.48 33.78 41.58 30.72 41.04L30.6 39.84C35.28 37.08 36.42 34.14 38.28 27.96L38.34 27.54C38.34 27.54 39.96 26.88 40.2 23.88C40.56 19.8 38.88 21 38.88 20.7C39.06 18.6 39 15.84 38.4 13.8C37.14 9.42 32.88 5.94 27 5.94C21.12 5.94 16.86 9.36 15.6 13.8C15 15.84 14.94 18.6 15.12 20.76C15.12 21.06 13.5 19.86 13.8 23.94C14.04 26.94 15.66 27.6 15.66 27.6L15.72 28.02C17.58 34.2 18.72 37.14 23.4 39.9L23.28 41.1C20.28 41.64 15.78 42.54 12.66 45C11.64 45.84 10.68 46.74 9.84 48C14.52 51.78 20.52 54.06 27 54.06Z" fill="#000" stroke="black" stroke-opacity="0.2" stroke-width="0.9"/>
</svg>
